<?xml version="1.0" encoding="UTF-8"?>
<svg id="OBJECTS" xmlns="http://www.w3.org/2000/svg" xmlns:xlink="http://www.w3.org/1999/xlink" viewBox="0 0 253.89 230.41">
  <defs>
    <style>
      .cls-1 {
        fill: url(#linear-gradient-2);
      }

      .cls-2 {
        fill: url(#linear-gradient-6);
      }

      .cls-3 {
        fill: url(#linear-gradient-11);
      }

      .cls-4 {
        fill: url(#linear-gradient-10);
      }

      .cls-5 {
        fill: url(#linear-gradient-5);
      }

      .cls-6 {
        fill: url(#linear-gradient-7);
      }

      .cls-7 {
        fill: url(#linear-gradient-9);
      }

      .cls-8 {
        fill: url(#linear-gradient-3);
      }

      .cls-9 {
        fill: url(#linear-gradient);
      }

      .cls-10 {
        fill: url(#linear-gradient-4);
      }

      .cls-11 {
        fill: url(#linear-gradient-8);
      }

      .cls-12 {
        fill: url(#linear-gradient-12);
      }
    </style>
    <linearGradient id="linear-gradient" x1="268.54" y1="214.66" x2="105.38" y2="-12.82" gradientTransform="translate(-20.45 28.04) rotate(-11.03)" gradientUnits="userSpaceOnUse">
      <stop offset="0" stop-color="#ed008c"/>
      <stop offset="1" stop-color="#fd962f"/>
    </linearGradient>
    <linearGradient id="linear-gradient-2" x1="179.83" y1="162.73" x2="98.2" y2="75.72" gradientUnits="userSpaceOnUse">
      <stop offset="0" stop-color="#008af1"/>
      <stop offset="1" stop-color="#180044"/>
    </linearGradient>
    <linearGradient id="linear-gradient-3" x1="178.33" y1="193.24" x2="50.9" y2="57.41" xlink:href="#linear-gradient-2"/>
    <linearGradient id="linear-gradient-4" x1="199.18" y1="79.94" x2="175.37" y2="54.56" xlink:href="#linear-gradient-2"/>
    <linearGradient id="linear-gradient-5" x1="160.74" y1="291.98" x2="-2.43" y2="64.5" xlink:href="#linear-gradient"/>
    <linearGradient id="linear-gradient-6" x1="110.08" y1="31.51" x2="96.81" y2="17.37" xlink:href="#linear-gradient-2"/>
    <linearGradient id="linear-gradient-7" x1="237.02" y1="138.32" x2="164.47" y2="60.98" xlink:href="#linear-gradient-2"/>
    <linearGradient id="linear-gradient-8" x1="225.87" y1="245.26" x2="62.71" y2="17.78" xlink:href="#linear-gradient"/>
    <linearGradient id="linear-gradient-9" x1="306.42" y1="187.49" x2="143.26" y2="-39.99" xlink:href="#linear-gradient"/>
    <linearGradient id="linear-gradient-10" x1="153.25" y1="297.73" x2="-9.91" y2="70.25" xlink:href="#linear-gradient"/>
    <linearGradient id="linear-gradient-11" x1="226.14" y1="247.42" x2="198.21" y2="206.04" xlink:href="#linear-gradient"/>
    <linearGradient id="linear-gradient-12" x1="237.71" y1="236.77" x2="74.55" y2="9.29" xlink:href="#linear-gradient"/>
  </defs>
  <path class="cls-9" d="m147.18,1.21c-11.42,3.58-18.94,14.88-17.85,26.8.77,8.41,5.36,15.35,11.79,19.45,2.34,1.5,3.38,4.39,2.72,7.09l-9.5,38.69c-.49,1.99-1.78,3.75-3.65,4.59-1.14.51-2.22,1.24-3.19,2.22-2.89,2.91-3.8,7.39-2.25,11.19,2.79,6.83,11.34,8.76,16.79,3.85,3.01-2.71,4.14-7.07,2.89-10.92-.42-1.28-1.04-2.39-1.8-3.34-1.24-1.53-1.56-3.61-1.09-5.52l9.56-38.94c.66-2.69,2.93-4.71,5.69-4.95,2.83-.24,5.71-.97,8.56-2.31,10.22-4.81,16.31-15.88,14.67-27.05-2.29-15.63-17.97-25.66-33.31-20.85Z"/>
  <path class="cls-1" d="m200.07,90.63l-15.79,3.08c-1.62.32-3.23-.6-3.77-2.16-3.27-9.34-9.37-17.61-17.49-23.42-1.85-1.32-4.45-.83-5.68,1.12-1.12,1.79-.54,4.19,1.17,5.43,8.26,5.96,14.02,14.96,15.99,24.91,0,.03,0,.06,0,.08,4.25,21.8-10.03,42.99-31.83,47.24-3.54.69-7.06.89-10.5.64-1.53-.11-2.59-1.58-2.23-3.08l2.48-10.11c.27-1.11,1.27-1.89,2.42-1.88,4.01.04,8.15-.86,12.21-3.15,8.71-4.9,13.94-14.54,12.92-24.49-1.64-15.88-17.39-26.29-32.71-21.42-11.08,3.52-18.38,14.49-17.35,26.07.8,9.08,6.21,16.41,13.54,20.2,1.01.52,1.52,1.67,1.25,2.77-.64,2.59-1.76,7.16-2.48,10.1-.37,1.49-1.98,2.3-3.39,1.69-11.7-5.13-20.78-15.72-23.4-29.18-2.66-13.65,1.96-27.18,11.24-36.38.02-.02.05-.04.07-.07.39-.39.79-.77,1.2-1.14,3.95-3.56,8.57-6.32,13.57-8.1.04-.01.07-.03.11-.04.53-.19,1.07-.36,1.61-.53.79-.24,1.6-.43,2.37-.73,1.04-.4,2.14-.58,3.26-.6,1.95-.04,3.48-1.44,3.83-3.19.1-.49.11-1.02,0-1.55-.41-2.14-2.58-3.46-4.74-3.14-1.74.26-3.45.62-5.14,1.06-.04,0-.07,0-.11.02-.31.08-.62.18-.93.27-.28.08-.55.15-.83.24-.68.21-1.35.43-2.02.66-.02,0-.04.01-.06.02-6.14,2.17-11.63,5.5-16.24,9.69-2.42,2.18-4.63,4.6-6.57,7.25-.1.14-.17.29-.25.43-8.59,12.01-11.7,27.86-6.61,43.32,7.05,21.42,28.46,35.19,50.88,32.75,26.04-2.83,44.34-25.48,43.08-50.39-.08-1.66,1.05-3.13,2.68-3.45l8.14-1.59c1.96-.38,3.84,1.04,3.98,3.04,2.22,31.34-19.3,60.22-50.9,66.39-21.89,4.27-44.63-3.46-59.4-20.16-1.28-1.45-3.41-1.96-5.09-.99-2.25,1.31-2.65,4.24-1.02,6.09,16.63,18.93,42.31,27.69,67.03,22.87,38.48-7.5,63.68-44.92,56.17-83.4-.42-2.15-2.52-3.54-4.66-3.13Zm-68.4-.12c9.3-1.81,18.34,4.28,20.15,13.58,1.81,9.3-4.28,18.34-13.57,20.15-9.3,1.81-18.34-4.28-20.15-13.58-1.81-9.3,4.28-18.34,13.58-20.15Z"/>
  <path class="cls-8" d="m186.39,181.57c-1.12-2-3.67-2.63-5.59-1.42-9.01,5.66-18.9,9.57-29.4,11.62-46.53,9.07-91.77-21.4-100.85-67.94-5.3-27.17,3.01-55.39,21.79-75.41,1.4-1.49,3.77-1.48,5.16.02l5.35,5.8c1.24,1.34,1.24,3.41,0,4.75-.9.97-1.78,1.97-2.63,2.99-.09.11-.16.23-.23.35-13.25,16.22-18.89,37.77-14.82,58.65.39,2.01.86,3.98,1.39,5.84.54,1.88,2.28,3.25,4.23,3.06,2.56-.25,4.15-2.72,3.47-5.07-.49-1.7-.92-3.5-1.29-5.36-4.01-20.59,2.58-41.93,17.28-56.69.01-.02.03-.03.04-.05.97-.97,1.97-1.91,3.01-2.82,6.43-5.65,13.94-9.94,22.14-12.59,2.35-.76,4.77-1.39,7.21-1.87,1.9-.38,3.41-1.96,3.41-3.89,0-2.6-2.33-4.42-4.74-3.95-2.82.55-5.62,1.27-8.33,2.15-7.01,2.26-13.57,5.59-19.49,9.83-1.43,1.03-3.4.81-4.6-.49l-10.79-11.7c-1.47-1.59-3.95-1.72-5.57-.27-24.72,22-36.14,55.81-29.82,88.24,9.91,50.84,59.34,84.13,110.18,74.22,11.4-2.22,22.15-6.46,31.94-12.59,1.82-1.14,2.57-3.55,1.52-5.42Z"/>
  <g>
    <path class="cls-10" d="m196.11,81.99c-1.73.34-3.53-.51-4.34-2.17-3.74-7.71-8.93-14.49-15.44-20.14-1.66-1.44-1.84-3.95-.39-5.61,1.44-1.66,3.95-1.84,5.61-.4,7.33,6.36,13.18,13.99,17.39,22.68.96,1.98.13,4.36-1.84,5.31-.32.15-.65.26-.98.33Z"/>
    <path class="cls-5" d="m94.86,117.22c-5.16.39-8.98,4.32-9.61,9.03-.28,2.11-1.45,3.99-3.26,5.11l-35.28,21.69c-1.76,1.08-4.02.81-5.51-.64-6.13-5.97-15.28-8.61-24.3-5.77C6.22,150.02-.86,160.59.08,171.75c1.44,17.07,19.73,27.8,35.86,19.38,9.38-4.89,14.2-15.59,12.17-25.97l-.03-.14c-.37-1.88.45-3.74,2.05-4.73l36.02-22.15c1.81-1.12,4.03-1.31,6.04-.6,1.68.59,3.54.75,5.42.39,6.06-1.18,9.87-7.37,7.96-13.44-1.43-4.55-5.95-7.62-10.71-7.26ZM27.15,184.5c-8.11,1.58-16-3.73-17.59-11.85s3.73-16,11.85-17.59,16,3.73,17.59,11.85c1.58,8.11-3.73,16-11.85,17.59Z"/>
    <path class="cls-2" d="m90.17,33.67c-1.61.31-3.31-.4-4.19-1.89-1.11-1.89-.48-4.33,1.42-5.44,9.05-5.31,18.91-9.05,29.3-11.11,0,0,0,0,.01,0,2.15-.42,4.24.98,4.66,3.13.43,2.15-.97,4.25-3.13,4.67-9.51,1.88-18.54,5.31-26.82,10.17-.4.23-.82.39-1.25.48Z"/>
    <path class="cls-6" d="m208.29,164.44c-1.05.2-2.18-.01-3.11-.7-1.77-1.3-2.16-3.79-.86-5.56,14.13-19.28,19.61-43.8,15.03-67.26-3.74-19.2-13.55-36.06-28.37-48.77-1.67-1.43-1.86-3.94-.43-5.61,1.43-1.67,3.94-1.86,5.61-.43,16.19,13.88,26.91,32.31,31,53.28,5,25.64-.99,52.42-16.42,73.49-.62.84-1.5,1.37-2.45,1.55Z"/>
  </g>
  <path class="cls-11" d="m219.09,172.23c-3.38.39-6.53,1.34-9.39,2.73-2.63,1.27-5.79.57-7.78-1.56l-9.41-10.1c-1.39-1.49-2.07-3.52-1.76-5.53.17-1.09.17-2.25-.04-3.46-.7-3.93-3.66-7.2-7.51-8.23-7.05-1.89-13.77,3.67-13.2,11,.33,4.15,3.23,7.78,7.2,9.04,1.35.43,2.69.57,3.98.48,2.07-.15,4.1.62,5.51,2.13l9.42,10.1c1.99,2.14,2.46,5.34,1.01,7.87-3.79,6.59-5.03,14.68-2.7,22.73,3.84,13.26,16.82,22.13,30.58,20.87,17.91-1.65,29.91-18.64,25.81-35.86-3.39-14.22-17.19-23.89-31.71-22.2Z"/>
  <path class="cls-7" d="m253.71,84.22c.97,4.99-2.29,9.83-7.28,10.81-4.99.97-9.83-2.29-10.81-7.28-.97-4.99,2.29-9.83,7.28-10.81,4.99-.97,9.83,2.29,10.81,7.28Z"/>
  <path class="cls-4" d="m118.13,215.75c.97,4.99-2.29,9.83-7.28,10.81-4.99.97-9.83-2.29-10.81-7.28-.97-5,2.29-9.83,7.28-10.81,4.99-.97,9.83,2.29,10.81,7.28Z"/>
  <circle class="cls-3" cx="222.43" cy="201.22" r="15.27"/>
  <path class="cls-12" d="m67.46,24.82c.97,5-2.29,9.83-7.28,10.81-5,.97-9.83-2.29-10.81-7.28-.97-4.99,2.29-9.83,7.28-10.81,4.99-.97,9.83,2.29,10.81,7.28Z"/>
</svg>